# Blender v2.90.0 OBJ File: 'Shuriken.blend'
# www.blender.org
mtllib PaperShuriken.mtl
o Cube_Cube.001
v -2.000000 -0.202553 2.000000
v -2.000000 0.202553 2.000000
v -2.000000 -0.202553 -2.000000
v -2.000000 0.202553 -2.000000
v 2.000000 -0.202553 2.000000
v 2.000000 0.202553 2.000000
v 2.000000 -0.202553 -2.000000
v 2.000000 0.202553 -2.000000
v 2.000000 -0.202553 0.000000
v 2.000000 0.202553 0.000000
v 6.000000 -0.202553 -2.000000
v 6.000000 0.202553 -2.000000
v -2.036977 0.258591 2.045769
v -2.036977 -0.258591 2.045769
v -2.036976 0.258591 -2.038711
v -2.036976 -0.258591 -2.038711
v -2.030272 -0.235083 2.026868
v -2.030272 0.235083 2.026868
v 2.013768 -0.235083 2.026868
v 2.013768 0.235083 2.026868
v -0.008252 -0.235083 2.026868
v -0.008252 0.235083 2.026868
v 2.013768 0.235083 6.026868
v 2.013768 -0.235083 6.026868
v -2.000000 -0.202553 0.000000
v -2.000000 0.202553 0.000000
v 0.000000 -0.202553 -2.000000
v 0.000000 0.202553 -2.000000
v 0.000000 -0.202553 2.000000
v 0.000000 0.202553 2.000000
v -0.008252 0.235083 0.003886
v -0.008252 -0.235083 0.003886
v 2.013768 -0.235083 0.003886
v 2.013768 0.235083 0.003886
v -2.030272 -0.235083 0.003886
v -2.030272 0.235083 0.003886
v -2.036977 -0.258591 0.003529
v -2.036977 0.258591 0.003529
v -6.036977 -0.258591 2.045769
v -6.036977 0.258591 2.045769
v 0.006235 0.258591 0.003529
v 0.006235 -0.258591 0.003529
v 0.006235 -0.258591 2.045770
v 0.006235 0.258591 2.045770
v 0.006236 -0.258591 -2.038711
v 0.006235 0.258591 -2.038711
v -2.051836 0.284450 -2.064708
v -2.051836 -0.284450 -2.064708
v 2.030725 0.284450 -2.064707
v 2.030725 -0.284450 -2.064707
v 0.194628 -0.284450 -2.064708
v 0.194628 0.284450 -2.064708
v -2.051836 -0.284450 -6.064708
v -2.051836 0.284450 -6.064708
v 0.194628 0.284450 0.000442
v 0.194628 -0.284450 0.000442
v -2.051836 -0.284450 0.000441
v -2.051836 0.284450 0.000441
v 2.030725 -0.284450 0.000442
v 2.030725 0.284450 0.000442
vt 0.625000 0.125000
vt 0.375000 0.250000
vt 0.375000 0.125000
vt 0.625000 0.375000
vt 0.375000 0.500000
vt 0.375000 0.375000
vt 0.625000 0.625000
vt 0.375000 0.750000
vt 0.375000 0.625000
vt 0.625000 0.875000
vt 0.375000 1.000000
vt 0.375000 0.875000
vt 0.250000 0.750000
vt 0.125000 0.625000
vt 0.875000 0.625000
vt 0.750000 0.750000
vt 0.625000 0.375000
vt 0.375000 0.500000
vt 0.375000 0.375000
vt 0.625000 0.500000
vt 0.625000 0.500000
vt 0.375000 0.500000
vt 0.000000 0.000000
vt 0.000000 0.000000
vt 0.000000 0.000000
vt 0.000000 0.000000
vt 0.000000 0.000000
vt 0.000000 0.000000
vt 0.000000 0.000000
vt 0.000000 0.000000
vt 0.000000 0.000000
vt 0.625000 0.375000
vt 0.375000 0.500000
vt 0.375000 0.375000
vt 0.625000 0.625000
vt 0.375000 0.750000
vt 0.375000 0.625000
vt 0.625000 0.875000
vt 0.625000 0.750000
vt 0.000000 0.000000
vt 0.625000 0.875000
vt 0.625000 0.750000
vt 0.000000 0.000000
vt 0.000000 0.000000
vt 0.625000 0.625000
vt 0.375000 0.750000
vt 0.375000 0.625000
vt 0.625000 0.500000
vt 0.625000 0.500000
vt 0.375000 0.500000
vt 0.375000 0.875000
vt 0.000000 0.000000
vt 0.000000 0.000000
vt 0.000000 0.000000
vt 0.625000 0.750000
vt 0.625000 0.250000
vt 0.625000 0.000000
vt 0.375000 0.000000
vt 0.625000 0.500000
vt 0.625000 0.500000
vt 0.375000 0.500000
vt 0.375000 0.875000
vt 0.000000 0.000000
vt 0.000000 0.000000
vt 0.000000 0.000000
vt 0.625000 0.375000
vt 0.375000 0.500000
vt 0.375000 0.375000
vt 0.000000 0.000000
vt 0.000000 0.000000
vt 0.000000 0.000000
vt 0.625000 0.750000
vt 0.625000 0.875000
vt 0.625000 0.625000
vt 0.375000 0.750000
vt 0.375000 0.625000
vt 0.625000 0.500000
vt 0.625000 0.500000
vt 0.375000 0.500000
vt 0.375000 0.875000
vt 0.000000 0.000000
vt 0.000000 0.000000
vt 0.000000 0.000000
vt 0.625000 1.000000
vt 0.125000 0.500000
vt 0.250000 0.500000
vt 0.125000 0.750000
vt 0.750000 0.500000
vt 0.875000 0.500000
vt 0.875000 0.750000
vt 0.000000 0.000000
vt 0.000000 0.000000
vt 0.000000 0.000000
vt 0.000000 0.000000
vt 0.000000 0.000000
vt 0.000000 0.000000
vn -1.0000 0.0000 0.0000
vn 0.0000 0.0000 -1.0000
vn 1.0000 0.0000 0.0000
vn 0.0000 0.0000 1.0000
vn 0.0000 -1.0000 0.0000
vn 0.0000 1.0000 0.0000
vn -0.4472 0.0000 -0.8944
vn -0.8925 0.0000 0.4511
vn -0.4547 0.0000 -0.8906
vn 0.8719 0.0000 -0.4897
usemtl None
s off
f 26/1/1 3/2/1 25/3/1
f 28/4/2 7/5/2 27/6/2
f 10/7/3 5/8/3 9/9/3
f 30/10/4 1/11/4 29/12/4
f 9/9/5 29/13/5 25/14/5
f 26/15/6 30/16/6 10/7/6
f 44/17/4 14/18/4 43/19/4
f 7/5/4 12/20/4 8/21/4
f 10/7/7 11/22/7 9/9/7
f 8/23/5 12/24/5 10/25/5
f 9/26/6 11/27/6 7/28/6
f 44/29/5 38/30/5 41/31/5
f 34/32/3 19/33/3 33/34/3
f 22/35/4 17/36/4 21/37/4
f 38/30/6 46/38/6 15/39/6
f 22/40/6 36/41/6 18/42/6
f 34/43/5 22/40/5 31/44/5
f 38/45/1 16/46/1 37/47/1
f 22/35/5 20/48/5 23/49/5
f 19/33/6 21/37/6 24/50/6
f 24/50/8 22/35/8 21/37/8
f 20/48/3 24/50/3 19/33/3
f 17/36/1 36/41/1 35/51/1
f 32/52/5 17/36/5 35/51/5
f 21/53/6 33/54/6 32/52/6
f 6/55/4 29/12/4 5/8/4
f 4/56/2 27/6/2 3/2/2
f 2/57/1 25/3/1 1/58/1
f 38/45/5 13/59/5 40/60/5
f 14/18/6 37/47/6 39/61/6
f 39/61/9 38/45/9 37/47/9
f 13/59/4 39/61/4 14/18/4
f 16/46/2 46/38/2 45/62/2
f 42/63/5 16/46/5 45/62/5
f 42/63/6 14/64/6 43/65/6
f 58/66/1 48/67/1 57/68/1
f 58/69/5 52/70/5 55/71/5
f 49/72/6 55/71/6 60/73/6
f 52/74/2 50/75/2 51/76/2
f 52/74/5 47/77/5 54/78/5
f 53/79/10 52/74/10 51/76/10
f 48/67/6 51/76/6 53/79/6
f 47/77/1 53/79/1 48/67/1
f 50/75/3 60/73/3 59/80/3
f 56/81/5 50/75/5 59/80/5
f 51/82/6 57/83/6 56/81/6
f 55/71/4 59/80/4 60/73/4
f 55/71/2 57/68/2 58/66/2
f 26/1/1 4/56/1 3/2/1
f 28/4/2 8/21/2 7/5/2
f 10/7/3 6/55/3 5/8/3
f 30/10/4 2/84/4 1/11/4
f 25/14/5 3/85/5 27/86/5
f 27/86/5 7/5/5 9/9/5
f 9/9/5 5/8/5 29/13/5
f 29/13/5 1/87/5 25/14/5
f 25/14/5 27/86/5 9/9/5
f 10/7/6 8/21/6 28/88/6
f 28/88/6 4/89/6 26/15/6
f 26/15/6 2/90/6 30/16/6
f 30/16/6 6/55/6 10/7/6
f 10/7/6 28/88/6 26/15/6
f 44/17/4 13/59/4 14/18/4
f 7/5/4 11/22/4 12/20/4
f 10/7/7 12/20/7 11/22/7
f 44/29/5 13/91/5 38/30/5
f 34/32/3 20/48/3 19/33/3
f 22/35/4 18/42/4 17/36/4
f 38/30/6 41/31/6 46/38/6
f 22/40/6 31/44/6 36/41/6
f 34/43/5 20/92/5 22/40/5
f 38/45/1 15/39/1 16/46/1
f 24/50/8 23/49/8 22/35/8
f 20/48/3 23/49/3 24/50/3
f 17/36/1 18/42/1 36/41/1
f 32/52/5 21/53/5 17/36/5
f 21/53/6 19/93/6 33/54/6
f 6/55/4 30/10/4 29/12/4
f 4/56/2 28/4/2 27/6/2
f 2/57/1 26/1/1 25/3/1
f 39/61/9 40/60/9 38/45/9
f 13/59/4 40/60/4 39/61/4
f 16/46/2 15/39/2 46/38/2
f 42/63/5 37/94/5 16/46/5
f 42/63/6 37/94/6 14/64/6
f 58/66/1 47/77/1 48/67/1
f 58/69/5 47/95/5 52/70/5
f 49/72/6 52/70/6 55/71/6
f 52/74/2 49/72/2 50/75/2
f 53/79/10 54/78/10 52/74/10
f 47/77/1 54/78/1 53/79/1
f 50/75/3 49/72/3 60/73/3
f 56/81/5 51/82/5 50/75/5
f 51/82/6 48/96/6 57/83/6
f 55/71/4 56/81/4 59/80/4
f 55/71/2 56/81/2 57/68/2
